<mxfile host="app.diagrams.net" agent="Mozilla/5.0 (Macintosh; Intel Mac OS X 10_15_7) AppleWebKit/537.36 (KHTML, like Gecko) Chrome/135.0.0.0 Safari/537.36" version="27.0.6">
  <diagram name="第 1 页" id="dTMJt8ikV_kJR8OObr3J">
    <mxGraphModel dx="1018" dy="655" grid="1" gridSize="10" guides="1" tooltips="1" connect="1" arrows="1" fold="1" page="1" pageScale="1" pageWidth="827" pageHeight="1169" math="0" shadow="0">
      <root>
        <mxCell id="0" />
        <mxCell id="1" parent="0" />
        <mxCell id="VXURBPU4Amz-J4X_6pdN-3" value="" style="edgeStyle=orthogonalEdgeStyle;rounded=0;orthogonalLoop=1;jettySize=auto;html=1;" edge="1" parent="1" source="VXURBPU4Amz-J4X_6pdN-1" target="VXURBPU4Amz-J4X_6pdN-2">
          <mxGeometry relative="1" as="geometry" />
        </mxCell>
        <mxCell id="VXURBPU4Amz-J4X_6pdN-1" value="客户端" style="rounded=1;whiteSpace=wrap;html=1;" vertex="1" parent="1">
          <mxGeometry x="100" y="300" width="90" height="50" as="geometry" />
        </mxCell>
        <mxCell id="VXURBPU4Amz-J4X_6pdN-5" value="" style="edgeStyle=orthogonalEdgeStyle;rounded=0;orthogonalLoop=1;jettySize=auto;html=1;" edge="1" parent="1" source="VXURBPU4Amz-J4X_6pdN-2" target="VXURBPU4Amz-J4X_6pdN-4">
          <mxGeometry relative="1" as="geometry" />
        </mxCell>
        <mxCell id="VXURBPU4Amz-J4X_6pdN-2" value="k8s的DNS域名" style="rounded=1;whiteSpace=wrap;html=1;" vertex="1" parent="1">
          <mxGeometry x="270" y="300" width="90" height="50" as="geometry" />
        </mxCell>
        <mxCell id="VXURBPU4Amz-J4X_6pdN-7" value="" style="edgeStyle=orthogonalEdgeStyle;rounded=0;orthogonalLoop=1;jettySize=auto;html=1;" edge="1" parent="1" source="VXURBPU4Amz-J4X_6pdN-4" target="VXURBPU4Amz-J4X_6pdN-6">
          <mxGeometry relative="1" as="geometry" />
        </mxCell>
        <mxCell id="VXURBPU4Amz-J4X_6pdN-9" value="" style="edgeStyle=orthogonalEdgeStyle;rounded=0;orthogonalLoop=1;jettySize=auto;html=1;" edge="1" parent="1" source="VXURBPU4Amz-J4X_6pdN-4" target="VXURBPU4Amz-J4X_6pdN-8">
          <mxGeometry relative="1" as="geometry" />
        </mxCell>
        <mxCell id="VXURBPU4Amz-J4X_6pdN-4" value="kube-proxy" style="rounded=1;whiteSpace=wrap;html=1;" vertex="1" parent="1">
          <mxGeometry x="430" y="300" width="90" height="50" as="geometry" />
        </mxCell>
        <mxCell id="VXURBPU4Amz-J4X_6pdN-6" value="endpoint" style="rounded=1;whiteSpace=wrap;html=1;" vertex="1" parent="1">
          <mxGeometry x="430" y="400" width="90" height="50" as="geometry" />
        </mxCell>
        <mxCell id="VXURBPU4Amz-J4X_6pdN-8" value="pod" style="rounded=1;whiteSpace=wrap;html=1;" vertex="1" parent="1">
          <mxGeometry x="600" y="300" width="90" height="50" as="geometry" />
        </mxCell>
      </root>
    </mxGraphModel>
  </diagram>
</mxfile>
